<svg width="50" height="50" viewBox="0 0 50 50" fill="none" xmlns="http://www.w3.org/2000/svg">
<path d="M43.8965 4.92188H6.10352C4.73633 4.92188 3.62305 6.03516 3.62305 7.40234V26.9531H46.3867V7.40234C46.3867 6.03516 45.2734 4.92188 43.8965 4.92188ZM12.4512 17.041C12.2754 17.041 12.0996 16.9727 11.9727 16.8457C11.709 16.582 11.709 16.1426 11.9727 15.8789L18.1543 9.69727C18.418 9.43359 18.8574 9.43359 19.1211 9.69727C19.3848 9.96094 19.3848 10.4004 19.1211 10.6641L12.9395 16.8457C12.8027 16.9727 12.627 17.041 12.4512 17.041ZM18.0371 23.9062C17.8613 23.9062 17.6855 23.8379 17.5488 23.7109C17.2852 23.4473 17.2852 23.0078 17.5488 22.7441L31.2109 9.08203C31.4746 8.81836 31.9141 8.81836 32.1777 9.08203C32.4414 9.3457 32.4414 9.78516 32.1777 10.0488L18.5156 23.7109C18.3887 23.8379 18.2129 23.9062 18.0371 23.9062ZM38.0371 16.875L31.6406 23.2715C31.5039 23.4082 31.3281 23.4668 31.1523 23.4668C30.9766 23.4668 30.8008 23.3984 30.6738 23.2715C30.4102 23.0078 30.4102 22.5684 30.6738 22.3047L37.0703 15.9082C37.334 15.6445 37.7734 15.6445 38.0371 15.9082C38.3008 16.1816 38.3008 16.6113 38.0371 16.875Z" fill="#E6D9C1"/>
<path d="M29.4824 36.0938H20.5273C19.9219 38.9063 17.959 45.0879 12.3438 45.0879H37.666C32.0508 45.0781 30.0781 38.9063 29.4824 36.0938Z" fill="#78646D"/>
<path d="M3.61328 32.2363C3.61328 32.8711 3.84766 33.4473 4.24805 33.8867C4.54102 34.209 4.91211 34.4629 5.33203 34.5996C5.57617 34.6777 5.83008 34.7168 6.09375 34.7168H43.8965C44.1602 34.7168 44.4238 34.6777 44.6582 34.5996C45.0781 34.4629 45.459 34.2188 45.7422 33.8867C46.1328 33.4473 46.377 32.8711 46.377 32.2363V28.3203H3.61328V32.2363ZM25.0488 30.2344C25.7617 30.2344 26.3379 30.8105 26.3379 31.5234C26.3379 32.2363 25.7617 32.8125 25.0488 32.8125C24.3359 32.8125 23.7598 32.2363 23.7598 31.5234C23.7598 30.8105 24.3359 30.2344 25.0488 30.2344Z" fill="#78646D"/>
</svg>
