<svg width="50" height="50" viewBox="0 0 50 50" fill="none" xmlns="http://www.w3.org/2000/svg">
<path d="M48.4375 15.625H1.5625V21.875H48.4375V15.625Z" fill="#E6D9C1"/>
<path d="M1.5625 40.625C1.5625 41.4875 2.2625 42.1875 3.125 42.1875H46.875C47.7375 42.1875 48.4375 41.4875 48.4375 40.625V23.4375H1.5625V40.625Z" fill="#E6D9C1"/>
<path d="M46.875 7.8125H3.125C2.2625 7.8125 1.5625 8.51172 1.5625 9.375V14.0625H48.4375V9.375C48.4375 8.51172 47.7375 7.8125 46.875 7.8125Z" fill="#E6D9C1"/>
<path d="M46.875 6.25H3.125C1.39766 6.25 0 7.64766 0 9.375V40.625C0 42.3523 1.39766 43.75 3.125 43.75H46.875C48.6023 43.75 50 42.3523 50 40.625V9.375C50 7.64766 48.6023 6.25 46.875 6.25ZM48.4375 40.625C48.4375 41.4875 47.7375 42.1875 46.875 42.1875H3.125C2.2625 42.1875 1.5625 41.4875 1.5625 40.625V23.4375H48.4375V40.625ZM48.4375 21.875H1.5625V15.625H48.4375V21.875ZM48.4375 14.0625H1.5625V9.375C1.5625 8.51172 2.2625 7.8125 3.125 7.8125H46.875C47.7375 7.8125 48.4375 8.51172 48.4375 9.375V14.0625Z" fill="#78646D"/>
<path d="M8.59375 31.25H19.5312C19.9633 31.25 20.3125 30.9008 20.3125 30.4688C20.3125 30.0367 19.9633 29.6875 19.5312 29.6875H8.59375C8.16172 29.6875 7.8125 30.0367 7.8125 30.4688C7.8125 30.9008 8.16172 31.25 8.59375 31.25Z" fill="#78646D"/>
<path d="M22.6562 31.25H27.3438C27.7758 31.25 28.125 30.9008 28.125 30.4688C28.125 30.0367 27.7758 29.6875 27.3438 29.6875H22.6562C22.2242 29.6875 21.875 30.0367 21.875 30.4688C21.875 30.9008 22.2242 31.25 22.6562 31.25Z" fill="#78646D"/>
<path d="M8.59375 35.9375H16.4062C16.8383 35.9375 17.1875 35.5883 17.1875 35.1562C17.1875 34.7242 16.8383 34.375 16.4062 34.375H8.59375C8.16172 34.375 7.8125 34.7242 7.8125 35.1562C7.8125 35.5883 8.16172 35.9375 8.59375 35.9375Z" fill="#78646D"/>
<path d="M35.1562 35.9375H41.4062C41.8383 35.9375 42.1875 35.5883 42.1875 35.1562V30.4688C42.1875 30.0367 41.8383 29.6875 41.4062 29.6875H35.1562C34.7242 29.6875 34.375 30.0367 34.375 30.4688V35.1562C34.375 35.5883 34.7242 35.9375 35.1562 35.9375ZM35.9375 31.25H40.625V34.375H35.9375V31.25Z" fill="#78646D"/>
<path d="M40.625 31.25H35.9375V34.375H40.625V31.25Z" fill="#78646D"/>
</svg>
