<svg width="800" height="800" viewBox="0 0 800 800" fill="none" xmlns="http://www.w3.org/2000/svg">
<g clip-path="url(#clip0_126_32)">
<path d="M430.487 279L289.712 140.312L148.95 279L209.362 279L209.362 468.563L370.075 468.562L370.075 279H430.487Z" fill="white"/>
<path d="M521.4 551.35V454.175C491.087 445.512 468.875 432.412 454.712 414.862C440.575 397.312 433.5 376.012 433.5 350.962C433.5 325.6 441.5 304.312 457.5 287.062C473.5 269.825 494.8 259.9 521.4 257.262V234.312H555.037V257.262C579.612 260.2 599.175 268.587 613.712 282.425C628.237 296.262 637.512 314.787 641.55 337.962L582.875 345.625C579.312 327.375 570.037 315.012 555.037 308.512V399.2C592.137 409.25 617.425 422.275 630.875 438.287C644.325 454.275 651.062 474.812 651.062 499.862C651.062 527.85 642.6 551.437 625.65 570.612C608.725 589.787 585.187 601.538 555.037 605.863V649.225H521.4V607.012C494.637 603.775 472.925 593.787 456.225 577.087C439.525 560.4 428.85 536.825 424.212 506.362L484.75 499.862C487.212 512.237 491.85 522.912 498.662 531.875C505.475 540.837 513.037 547.338 521.4 551.35ZM521.4 307.825C512.275 310.912 505 316.162 499.6 323.6C494.175 331.025 491.487 339.212 491.487 348.175C491.487 356.362 493.95 363.987 498.912 371.025C503.862 378.062 511.362 383.75 521.412 388.075V307.825H521.4ZM555.037 554.6C566.625 552.437 576.05 547.062 583.325 538.475C590.587 529.9 594.225 519.8 594.225 508.2C594.225 497.837 591.162 488.925 585.062 481.412C578.962 473.912 568.95 468.162 555.037 464.137V554.6Z" fill="white"/>
</g>
<defs>
<clipPath id="clip0_126_32">
<rect width="800" height="800" fill="white"/>
</clipPath>
</defs>
</svg>
