<svg width="2147" height="333" viewBox="0 0 2147 333" fill="none" xmlns="http://www.w3.org/2000/svg">
<path d="M435.247 119.68L495.309 254.714C507.463 282.04 495.186 314.055 467.887 326.221C440.588 338.387 408.605 326.098 396.451 298.772L347.898 189.613L326.5 240.072V119.68H435.247V119.68Z" fill="#E8BB73"/>
<path d="M441.756 134.314L454.183 162.253C446.677 159.643 438.613 158.225 430.218 158.225C395.541 158.225 366.517 182.424 359.124 214.852L347.898 189.613L336 217.67L336 134.314H441.756Z" fill="#393939" fill-opacity="0.2"/>
<path d="M261 117.309V212.933H160.94L150.567 189.613L140.678 212.933H30V196.707L99.368 33.1253C108.141 12.4362 128.257 0.0399414 149.385 0.113608C170.171 0.0411592 190.034 12.0296 199.032 32.258L249.219 145.091L261 117.309Z" fill="#E8BB73"/>
<path d="M249.146 144.928L249.219 145.091L296.699 33.1253C305.472 12.4362 325.587 0.0399414 346.716 0.113608C367.501 0.0411592 387.365 12.0296 396.362 32.258L454.133 162.14C442.482 152.069 427.303 145.979 410.704 145.979C381.861 145.979 357.309 164.366 348.101 190.07L347.898 189.613L301.257 299.6C289.581 327.134 257.817 339.981 230.31 328.293C227.619 327.15 225.068 325.814 222.667 324.308C212.58 318.818 204.151 310.083 199.12 298.772L150.755 190.036C158.036 192.122 165.726 193.24 173.676 193.24C207.13 193.24 235.967 173.451 249.146 144.928Z" fill="#E6D8C1"/>
<path d="M150.267 190.321L115.437 272.455C106.943 276.358 97.4782 278.531 87.4998 278.531C52.4973 278.531 23.811 251.784 21.1943 217.472L45.0966 161.106C56.6066 151.566 71.3837 145.832 87.4998 145.832C116.508 145.832 141.179 164.411 150.267 190.321Z" fill="black"/>
<path d="M140.044 214.427L103.926 299.601C92.2503 327.134 60.4864 339.981 32.9795 328.293C5.47269 316.606 -7.36077 284.81 4.31519 257.276L44.4212 162.7C52.9109 158.938 62.3005 156.849 72.176 156.849C106.27 156.849 134.574 181.747 140.044 214.427Z" fill="#393939"/>
<path d="M801.96 83.486V249.882C801.96 252.442 799.886 254.517 797.328 254.517H764.905C762.347 254.517 760.273 252.442 760.273 249.882V153.508C760.273 150.948 758.199 148.873 755.641 148.873C754.119 148.873 752.695 149.62 751.83 150.873L721.82 194.347C720.955 195.6 719.53 196.348 718.009 196.348H702.046C700.513 196.348 699.079 195.589 698.216 194.32L669.149 151.555C667.71 149.439 664.829 148.89 662.714 150.329C661.446 151.192 660.687 152.627 660.687 154.162V249.882C660.687 252.442 658.613 254.517 656.055 254.517H623.632C621.074 254.517 619 252.442 619 249.882V83.486C619 80.9262 621.074 78.851 623.632 78.851H664.695C666.243 78.851 667.688 79.6242 668.547 80.9118L706.628 137.97C708.049 140.098 710.925 140.672 713.052 139.25C713.559 138.911 713.994 138.476 714.332 137.97L752.413 80.9118C753.272 79.6242 754.717 78.851 756.265 78.851H797.328C799.886 78.851 801.96 80.9262 801.96 83.486ZM858.796 201.447C860.494 208.863 864.007 214.656 869.333 218.828C874.66 222.999 882.496 225.085 892.84 225.085C898.862 225.085 904.613 224.351 910.094 222.883C913.081 222.083 917.832 220.259 924.345 217.411C926.689 216.386 929.42 217.457 930.444 219.803C930.498 219.927 930.547 220.054 930.59 220.183L938.075 242.486C938.829 244.731 937.77 247.183 935.619 248.173C926.841 252.212 920.147 254.752 915.536 255.792C907.662 257.569 898.244 258.457 887.282 258.457C871.997 258.457 858.989 255.56 848.258 249.766C837.528 243.973 829.383 235.823 823.825 225.317C818.267 214.811 815.488 202.605 815.488 188.7C815.488 174.177 818.344 161.702 824.057 151.273C829.769 140.844 837.489 132.965 847.216 127.634C856.943 122.304 867.828 119.639 879.871 119.639C899.171 119.639 914.301 125.24 925.263 136.441C936.226 147.642 941.707 163.98 941.707 185.456V196.812C941.707 199.371 939.633 201.447 937.075 201.447H858.796ZM879.871 153.011C874.313 153.011 869.797 154.401 866.323 157.182C863.804 159.49 861.922 162.139 860.674 165.13C859.688 167.493 860.803 170.207 863.164 171.193C863.729 171.429 864.336 171.551 864.948 171.551H893.885C896.444 171.551 898.517 169.476 898.517 166.916C898.517 166.512 898.465 166.11 898.361 165.72C897.403 162.129 895.833 159.361 893.651 157.414C890.135 154.512 885.892 153.011 879.871 153.011ZM1114.26 120.566C1130.94 120.566 1143.41 124.969 1151.67 133.776C1159.93 142.582 1164.06 156.564 1164.06 175.722V249.882C1164.06 252.442 1161.98 254.517 1159.42 254.517H1128.39C1125.83 254.517 1123.76 252.442 1123.76 249.882V175.722C1123.76 169.388 1122.37 164.56 1119.59 161.238C1116.81 157.916 1112.02 156.255 1105.23 156.255C1096.89 156.255 1088.4 159.963 1079.76 167.379C1079.91 169.079 1079.99 171.86 1079.99 175.722V249.882C1079.99 252.442 1077.91 254.517 1075.35 254.517H1044.32C1041.76 254.517 1039.69 252.442 1039.69 249.882V175.722C1039.69 169.388 1038.3 164.56 1035.52 161.238C1032.74 157.916 1027.96 156.255 1021.16 156.255C1012.98 156.255 1004.56 159.809 995.918 166.916V249.882C995.918 252.442 993.844 254.517 991.286 254.517H960.252C957.694 254.517 955.62 252.442 955.62 249.882V127.982C955.62 125.422 957.694 123.347 960.252 123.347H991.286C993.844 123.347 995.918 125.422 995.918 127.982V133.544C1001.32 129.063 1006.76 125.78 1012.25 123.695C1017.73 121.609 1023.71 120.566 1030.19 120.566C1050.73 120.566 1064.78 127.132 1072.34 140.265C1079.29 133.467 1086.05 128.484 1092.61 125.317C1099.17 122.15 1106.39 120.566 1114.26 120.566ZM1255.56 119.639C1267.29 119.639 1277.68 122.227 1286.71 127.403C1295.74 132.578 1302.84 140.381 1308.02 150.809C1313.19 161.238 1315.78 173.946 1315.78 188.932C1315.78 204.073 1313.19 216.858 1308.02 227.287C1302.84 237.715 1295.74 245.518 1286.71 250.693C1277.68 255.869 1267.29 258.457 1255.56 258.457C1243.05 258.457 1231.32 254.286 1220.36 245.943V249.882C1220.36 252.442 1218.28 254.517 1215.73 254.517H1184.69C1182.13 254.517 1180.06 252.442 1180.06 249.882V63.092C1180.06 60.5322 1182.13 58.457 1184.69 58.457H1215.73C1218.28 58.457 1220.36 60.5322 1220.36 63.092V132.153C1231.32 123.81 1243.05 119.639 1255.56 119.639ZM1246.76 222.768C1255.72 222.768 1262.47 219.909 1267.02 214.193C1271.58 208.476 1273.86 200.056 1273.86 188.932C1273.86 177.963 1271.58 169.62 1267.02 163.903C1262.47 158.187 1255.72 155.328 1246.76 155.328C1237.96 155.328 1229.16 158.496 1220.36 164.83V213.266C1229.16 219.6 1237.96 222.768 1246.76 222.768ZM1366.82 201.447C1368.52 208.863 1372.03 214.656 1377.36 218.828C1382.69 222.999 1390.52 225.085 1400.87 225.085C1406.89 225.085 1412.64 224.351 1418.12 222.883C1421.11 222.083 1425.86 220.259 1432.37 217.411C1434.71 216.386 1437.45 217.457 1438.47 219.803C1438.52 219.927 1438.57 220.054 1438.62 220.183L1446.1 242.486C1446.85 244.731 1445.8 247.183 1443.64 248.173C1434.87 252.212 1428.17 254.752 1423.56 255.792C1415.69 257.569 1406.27 258.457 1395.31 258.457C1380.02 258.457 1367.01 255.56 1356.28 249.766C1345.55 243.973 1337.41 235.823 1331.85 225.317C1326.29 214.811 1323.51 202.605 1323.51 188.7C1323.51 174.177 1326.37 161.702 1332.08 151.273C1337.79 140.844 1345.51 132.965 1355.24 127.634C1364.97 122.304 1375.85 119.639 1387.9 119.639C1407.2 119.639 1422.33 125.24 1433.29 136.441C1444.25 147.642 1449.73 163.98 1449.73 185.456V196.812C1449.73 199.371 1447.66 201.447 1445.1 201.447H1366.82ZM1387.9 153.011C1382.34 153.011 1377.82 154.401 1374.35 157.182C1371.83 159.49 1369.95 162.139 1368.7 165.13C1367.71 167.493 1368.83 170.207 1371.19 171.193C1371.75 171.429 1372.36 171.551 1372.97 171.551H1401.91C1404.47 171.551 1406.54 169.476 1406.54 166.916C1406.54 166.512 1406.49 166.11 1406.39 165.72C1405.43 162.129 1403.86 159.361 1401.68 157.414C1398.16 154.512 1393.92 153.011 1387.9 153.011ZM1545.3 125.201V151.62C1545.3 154.18 1543.23 156.255 1540.67 156.255H1539.98C1538.72 156.255 1537.47 156.303 1536.21 156.398C1525.58 157.2 1514.94 161.401 1504.31 169.002V249.882C1504.31 252.442 1502.24 254.517 1499.68 254.517H1468.65C1466.09 254.517 1464.01 252.442 1464.01 249.882V127.982C1464.01 125.422 1466.09 123.347 1468.65 123.347H1499.68C1502.24 123.347 1504.31 125.422 1504.31 127.982V134.934C1510.02 130.145 1515.78 126.553 1521.57 124.158C1526.92 121.942 1532.58 120.751 1538.53 120.586C1539.01 120.573 1539.49 120.566 1539.98 120.566H1540.67C1543.23 120.566 1545.3 122.641 1545.3 125.201ZM1607.85 258.457C1596.89 258.457 1587.2 257.569 1578.78 255.792C1573.71 254.721 1568.52 253.187 1563.19 251.191C1561.33 250.491 1558.68 249.384 1555.26 247.87C1553.58 247.128 1552.5 245.466 1552.5 243.631V218.762C1552.5 216.202 1554.57 214.127 1557.13 214.127C1557.84 214.127 1558.54 214.29 1559.17 214.603C1560.9 215.454 1562.35 216.13 1563.53 216.632C1568.7 218.842 1573.9 220.578 1579.13 221.841C1588.09 224.004 1597.66 225.085 1607.85 225.085C1617.88 225.085 1622.9 222.072 1622.9 216.047C1622.9 213.575 1622.21 211.721 1620.82 210.485C1619.43 209.249 1617.19 208.245 1614.1 207.472L1591.64 202.837C1578.51 200.211 1568.94 195.73 1562.92 189.396C1556.9 183.061 1553.89 174.409 1553.89 163.44C1553.89 148.608 1558.48 137.6 1567.67 130.415C1576.85 123.231 1590.79 119.639 1609.47 119.639C1617.19 119.639 1625.26 120.411 1633.67 121.956C1638.49 122.841 1643.17 123.877 1647.71 125.066C1649.36 125.498 1651.57 126.134 1654.35 126.973C1656.3 127.564 1657.64 129.367 1657.64 131.41V155.392C1657.64 157.952 1655.57 160.027 1653.01 160.027C1652.45 160.027 1651.9 159.926 1651.37 159.728C1650.21 159.289 1649.18 158.926 1648.28 158.64C1644.6 157.468 1640.58 156.441 1636.22 155.56C1627.8 153.861 1619.58 153.011 1611.55 153.011C1605.22 153.011 1600.82 153.629 1598.35 154.865C1595.88 156.101 1594.65 158.032 1594.65 160.659C1594.65 162.667 1595.27 164.096 1596.5 164.946C1597.74 165.796 1599.82 166.53 1602.75 167.148L1625.22 171.783C1638.81 174.564 1648.61 179.121 1654.63 185.456C1660.65 191.79 1663.66 201.215 1663.66 213.729C1663.66 228.716 1658.65 239.917 1648.61 247.333C1638.57 254.749 1624.99 258.457 1607.85 258.457ZM1728.06 168.306V207.936C1728.06 213.034 1728.91 216.626 1730.61 218.712C1732.31 220.798 1735.39 221.841 1739.87 221.841C1742.82 221.841 1745.58 221.634 1748.17 221.221L1748.17 221.22C1750.7 220.816 1753.07 222.537 1753.48 225.065C1753.52 225.307 1753.54 225.552 1753.54 225.797V250.488C1753.54 252.703 1751.97 254.609 1749.8 255.036C1749.59 255.077 1749.41 255.113 1749.24 255.146C1745.82 255.808 1742.81 256.333 1740.22 256.719C1736.59 257.26 1732.69 257.53 1728.52 257.53C1714.78 257.53 1704.55 254.517 1697.84 248.492C1691.12 242.466 1687.76 233.814 1687.76 222.536V168.306C1687.76 165.747 1685.69 163.671 1683.13 163.671H1674.33C1671.77 163.671 1669.7 161.596 1669.7 159.036V132.617C1669.7 130.057 1671.77 127.982 1674.33 127.982H1683.13C1685.69 127.982 1687.76 125.907 1687.76 123.347V88.5845C1687.76 86.0247 1689.84 83.9495 1692.4 83.9495H1723.43C1725.99 83.9495 1728.06 86.0247 1728.06 88.5845V123.347C1728.06 125.907 1730.13 127.982 1732.69 127.982H1753.07C1755.63 127.982 1757.7 130.057 1757.7 132.617V159.036C1757.7 161.596 1755.63 163.671 1753.07 163.671H1732.69C1730.13 163.671 1728.06 165.747 1728.06 168.306ZM1823.64 123.347C1840.62 123.347 1853.55 125.626 1862.43 130.184C1871.31 134.741 1877.21 140.805 1880.15 148.376C1883.08 155.946 1884.55 165.603 1884.55 177.345V249.882C1884.55 252.442 1882.48 254.517 1879.92 254.517H1848.88C1846.33 254.517 1844.25 252.442 1844.25 249.882V243.857C1838.85 248.801 1833.52 252.316 1828.27 254.401C1823.02 256.487 1817.23 257.53 1810.9 257.53C1796.08 257.53 1784.46 253.629 1776.05 245.827C1767.63 238.024 1763.42 227.171 1763.42 213.266C1763.42 199.206 1767.71 188.391 1776.28 180.821C1784.85 173.25 1796.77 169.465 1812.06 169.465C1824.72 169.465 1835.45 171.783 1844.25 176.418C1844.1 172.092 1843.44 168.654 1842.28 166.105C1841.12 163.556 1838.81 161.586 1835.33 160.195C1831.86 158.805 1826.8 158.109 1820.17 158.109H1798.4C1795.84 158.109 1793.76 156.034 1793.76 153.474V127.982C1793.76 125.422 1795.84 123.347 1798.4 123.347H1823.64ZM1813.47 226.476C1821.34 226.476 1829.6 222.922 1838.25 215.815V203.532C1830.84 199.979 1823.35 198.202 1815.79 198.202C1810.23 198.202 1805.91 199.399 1802.82 201.794C1799.73 204.189 1798.19 207.858 1798.19 212.802C1798.19 217.901 1799.5 221.454 1802.12 223.463C1804.75 225.471 1808.53 226.476 1813.47 226.476ZM1962.23 258.457C1940.62 258.303 1924.1 252.161 1912.67 240.033C1901.25 227.905 1895.53 210.794 1895.53 188.7C1895.53 166.761 1901.25 149.805 1912.67 137.831C1924.1 125.858 1940.62 119.793 1962.23 119.639C1970.11 119.639 1976.82 120.102 1982.38 121.029C1985.84 121.606 1989.38 122.481 1993.02 123.654C1993.95 123.956 1995.19 124.396 1996.74 124.977C1998.55 125.655 1999.75 127.385 1999.75 129.318V155.648C1999.75 158.208 1997.68 160.283 1995.12 160.283C1994.53 160.283 1993.94 160.169 1993.39 159.948C1993.09 159.828 1992.81 159.72 1992.56 159.623C1989.48 158.457 1986.51 157.566 1983.65 156.951C1978.64 155.869 1973.04 155.328 1966.86 155.328C1956.52 155.483 1949.03 158.341 1944.4 163.903C1939.77 169.465 1937.45 177.654 1937.45 188.469C1937.45 199.593 1939.69 208.09 1944.17 213.961C1948.64 219.832 1955.82 222.768 1965.71 222.768C1971.26 222.768 1976.63 221.918 1981.8 220.218C1984.65 219.283 1987.56 218.066 1990.52 216.568C1991.21 216.219 1992.06 215.759 1993.06 215.191C1995.29 213.929 1998.12 214.713 1999.38 216.94C1999.52 217.192 1999.64 217.457 1999.73 217.731L2008 242.046C2008.73 244.183 2007.81 246.532 2005.83 247.611C2003.95 248.632 2002.43 249.417 2001.26 249.966C1989.23 255.627 1976.22 258.457 1962.23 258.457ZM2069.24 210.717L2058.59 222.072V249.882C2058.59 252.442 2056.52 254.517 2053.96 254.517H2022.92C2020.37 254.517 2018.29 252.442 2018.29 249.882V63.092C2018.29 60.5322 2020.37 58.457 2022.92 58.457H2052.39H2053.96C2056.52 58.457 2058.59 60.5322 2058.59 63.092V64.547V171.783L2098.21 129.449C2099.08 128.513 2100.31 127.982 2101.59 127.982H2137C2139.56 127.982 2141.63 130.057 2141.63 132.617C2141.63 133.801 2141.18 134.941 2140.37 135.801L2095.64 183.138L2146 247.011C2147.59 249.021 2147.25 251.936 2145.24 253.521C2144.42 254.166 2143.41 254.517 2142.37 254.517H2106C2104.58 254.517 2103.24 253.867 2102.36 252.752L2069.24 210.717Z" fill="#E6D8C1"/>
</svg>
