<svg width="50" height="50" viewBox="0 0 50 50" fill="none" xmlns="http://www.w3.org/2000/svg">
<g clip-path="url(#clip0_2356_25500)">
<path d="M35.417 16.1462C35.2087 16.1462 35.0212 16.1045 34.8128 16.0212C34.4378 15.8545 34.1253 15.5628 33.9587 15.167C33.8753 14.9795 33.8337 14.7712 33.8337 14.5628V6.22949C33.8337 6.20866 33.8545 6.18783 33.8545 6.14616C31.167 4.89616 28.167 4.16699 25.0003 4.16699C13.5003 4.16699 4.16699 13.5003 4.16699 25.0003C4.16699 36.5003 13.5003 45.8337 25.0003 45.8337C36.5003 45.8337 45.8337 36.5003 45.8337 25.0003C45.8337 21.8337 45.1045 18.8337 43.8337 16.1253C43.8128 16.1253 43.792 16.1462 43.7503 16.1462H35.417Z" fill="#78646D"/>
<path d="M28.6462 24.625L26.5628 23.8958V19.2708H26.7295C27.792 19.2708 28.6462 20.2083 28.6462 21.3542C28.6462 22.2083 29.3545 22.9167 30.2087 22.9167C31.0628 22.9167 31.7712 22.2083 31.7712 21.3542C31.7712 18.4792 29.5212 16.1458 26.7295 16.1458H26.5628V15.625C26.5628 14.7708 25.8545 14.0625 25.0003 14.0625C24.1462 14.0625 23.4378 14.7708 23.4378 15.625V16.1458H22.8128C20.292 16.1458 18.2295 18.2708 18.2295 20.8958C18.2295 23.9375 20.0003 24.9167 21.3545 25.3958L23.4378 26.125V30.75H23.2712C22.2087 30.75 21.3545 29.8125 21.3545 28.6667C21.3545 27.8125 20.6462 27.1042 19.792 27.1042C18.9378 27.1042 18.2295 27.8125 18.2295 28.6667C18.2295 31.5417 20.4795 33.875 23.2712 33.875H23.4378V34.3958C23.4378 35.25 24.1462 35.9583 25.0003 35.9583C25.8545 35.9583 26.5628 35.25 26.5628 34.3958V33.875H27.1878C29.7087 33.875 31.7712 31.75 31.7712 29.125C31.7712 26.0625 30.0003 25.0833 28.6462 24.625ZM22.3753 22.4167C21.667 22.1667 21.3545 22.0208 21.3545 20.875C21.3545 19.9792 22.0212 19.25 22.8128 19.25H23.4378V22.7708L22.3753 22.4167ZM27.1878 30.7292H26.5628V27.2083L27.6253 27.5833C28.3337 27.8333 28.6462 27.9792 28.6462 29.125C28.6462 30 27.9795 30.7292 27.1878 30.7292Z" fill="#E6D9C1"/>
<path d="M44.776 14.2182C44.7593 13.6881 44.5328 13.1864 44.1462 12.8233C43.7596 12.4602 43.2447 12.2656 42.7146 12.2821L40.4728 12.3524L45.4307 7.07357C45.7938 6.68693 45.9885 6.17186 45.9718 5.64169C45.9552 5.11152 45.7287 4.60966 45.342 4.24653C44.9554 3.88339 44.4403 3.68873 43.9101 3.70535C43.38 3.72197 42.8781 3.94852 42.515 4.33516L37.5571 9.61399L37.4868 7.37215C37.4831 7.10661 37.4266 6.84446 37.3205 6.60101C37.2143 6.35756 37.0608 6.13768 36.8688 5.95419C36.6768 5.77071 36.4502 5.6273 36.2022 5.53233C35.9542 5.43736 35.6898 5.39274 35.4243 5.40106C35.1589 5.40938 34.8978 5.47048 34.6562 5.5808C34.4146 5.69112 34.1975 5.84844 34.0173 6.04359C33.8372 6.23875 33.6978 6.46781 33.6071 6.71743C33.5165 6.96705 33.4765 7.23223 33.4894 7.49748L33.7736 16.5638L42.84 16.2795C43.37 16.2628 43.8717 16.0363 44.2348 15.6497C44.5979 15.2632 44.7925 14.7482 44.776 14.2182Z" fill="#E6D9C1"/>
</g>
<defs>
<clipPath id="clip0_2356_25500">
<rect width="50" height="50" fill="white"/>
</clipPath>
</defs>
</svg>
