<svg width="50" height="50" viewBox="0 0 50 50" fill="none" xmlns="http://www.w3.org/2000/svg">
<path d="M21.875 18.75V21.875H34.375V18.75H21.875Z" fill="#E6D9C1"/>
<path d="M21.875 25V28.125H34.375V25H21.875Z" fill="#E6D9C1"/>
<path d="M21.875 31.25V34.375H34.375V31.25H21.875Z" fill="#E6D9C1"/>
<path d="M21.875 37.5V40.625H34.375V37.5H21.875Z" fill="#E6D9C1"/>
<path d="M17.1875 37.5C16.7731 37.5 16.3757 37.6646 16.0826 37.9576C15.7896 38.2507 15.625 38.6481 15.625 39.0625C15.625 39.4769 15.7896 39.8743 16.0826 40.1674C16.3757 40.4604 16.7731 40.625 17.1875 40.625C17.6019 40.625 17.9993 40.4604 18.2924 40.1674C18.5854 39.8743 18.75 39.4769 18.75 39.0625C18.75 38.6481 18.5854 38.2507 18.2924 37.9576C17.9993 37.6646 17.6019 37.5 17.1875 37.5Z" fill="#E6D9C1"/>
<path d="M17.1875 31.25C16.7731 31.25 16.3757 31.4146 16.0826 31.7076C15.7896 32.0007 15.625 32.3981 15.625 32.8125C15.625 33.2269 15.7896 33.6243 16.0826 33.9174C16.3757 34.2104 16.7731 34.375 17.1875 34.375C17.6019 34.375 17.9993 34.2104 18.2924 33.9174C18.5854 33.6243 18.75 33.2269 18.75 32.8125C18.75 32.3981 18.5854 32.0007 18.2924 31.7076C17.9993 31.4146 17.6019 31.25 17.1875 31.25Z" fill="#E6D9C1"/>
<path d="M17.1875 25C16.7731 25 16.3757 25.1646 16.0826 25.4576C15.7896 25.7507 15.625 26.1481 15.625 26.5625C15.625 26.9769 15.7896 27.3743 16.0826 27.6674C16.3757 27.9604 16.7731 28.125 17.1875 28.125C17.6019 28.125 17.9993 27.9604 18.2924 27.6674C18.5854 27.3743 18.75 26.9769 18.75 26.5625C18.75 26.1481 18.5854 25.7507 18.2924 25.4576C17.9993 25.1646 17.6019 25 17.1875 25Z" fill="#E6D9C1"/>
<path fill-rule="evenodd" clip-rule="evenodd" d="M25 1.5625C22.4312 1.5625 20.3125 3.67812 20.3125 6.25H17.1875C16.7731 6.25 16.3757 6.41462 16.0826 6.70765C15.7896 7.00067 15.625 7.3981 15.625 7.8125V9.375H10.9375C10.5231 9.375 10.1257 9.53962 9.83265 9.83265C9.53962 10.1257 9.375 10.5231 9.375 10.9375V45.3125C9.375 45.7269 9.53962 46.1243 9.83265 46.4174C10.1257 46.7104 10.5231 46.875 10.9375 46.875H39.0625C39.4769 46.875 39.8743 46.7104 40.1674 46.4174C40.4604 46.1243 40.625 45.7269 40.625 45.3125V10.9375C40.625 10.5231 40.4604 10.1257 40.1674 9.83265C39.8743 9.53962 39.4769 9.375 39.0625 9.375H34.375V7.8125C34.375 7.3981 34.2104 7.00067 33.9174 6.70765C33.6243 6.41462 33.2269 6.25 32.8125 6.25H29.6875C29.6875 3.67812 27.5688 1.5625 25 1.5625ZM25 4.6875C25.8813 4.6875 26.5625 5.36875 26.5625 6.25V7.8125C26.5625 8.2269 26.7271 8.62433 27.0201 8.91735C27.3132 9.21038 27.7106 9.375 28.125 9.375H31.25V12.5H18.75V9.375H21.875C22.2894 9.375 22.6868 9.21038 22.9799 8.91735C23.2729 8.62433 23.4375 8.2269 23.4375 7.8125V6.25C23.4375 5.36875 24.1187 4.6875 25 4.6875ZM12.5 12.5H15.625V14.0625C15.625 14.4769 15.7896 14.8743 16.0826 15.1674C16.3757 15.4604 16.7731 15.625 17.1875 15.625H32.8125C33.2269 15.625 33.6243 15.4604 33.9174 15.1674C34.2104 14.8743 34.375 14.4769 34.375 14.0625V12.5H37.5V43.75H12.5V12.5Z" fill="#78646D"/>
<path d="M17.1875 18.75C16.7731 18.75 16.3757 18.9146 16.0826 19.2076C15.7896 19.5007 15.625 19.8981 15.625 20.3125C15.625 20.7269 15.7896 21.1243 16.0826 21.4174C16.3757 21.7104 16.7731 21.875 17.1875 21.875C17.6019 21.875 17.9993 21.7104 18.2924 21.4174C18.5854 21.1243 18.75 20.7269 18.75 20.3125C18.75 19.8981 18.5854 19.5007 18.2924 19.2076C17.9993 18.9146 17.6019 18.75 17.1875 18.75Z" fill="#E6D9C1"/>
</svg>
