<svg width="50" height="50" viewBox="0 0 50 50" fill="none" xmlns="http://www.w3.org/2000/svg">
<path d="M20.8333 31.25V35.4167C20.8333 35.9692 20.6138 36.4991 20.2231 36.8898C19.8324 37.2805 19.3025 37.5 18.75 37.5H14.5833C14.0308 37.5 13.5009 37.2805 13.1102 36.8898C12.7195 36.4991 12.5 35.9692 12.5 35.4167V31.25C12.5 30.6975 12.7195 30.1676 13.1102 29.7769C13.5009 29.3862 14.0308 29.1667 14.5833 29.1667H18.75C19.3025 29.1667 19.8324 29.3862 20.2231 29.7769C20.6138 30.1676 20.8333 30.6975 20.8333 31.25ZM35.4167 12.5H31.25C30.6975 12.5 30.1676 12.7195 29.7769 13.1102C29.3862 13.5009 29.1667 14.0308 29.1667 14.5833V18.75C29.1667 19.3025 29.3862 19.8324 29.7769 20.2231C30.1676 20.6138 30.6975 20.8333 31.25 20.8333H35.4167C35.9692 20.8333 36.4991 20.6138 36.8898 20.2231C37.2805 19.8324 37.5 19.3025 37.5 18.75V14.5833C37.5 14.0308 37.2805 13.5009 36.8898 13.1102C36.4991 12.7195 35.9692 12.5 35.4167 12.5ZM35.4167 25H27.0833C26.5308 25 26.0009 25.2195 25.6102 25.6102C25.2195 26.0009 25 26.5308 25 27.0833V35.4167C25 35.9692 25.2195 36.4991 25.6102 36.8898C26.0009 37.2805 26.5308 37.5 27.0833 37.5H35.4167C35.9692 37.5 36.4991 37.2805 36.8898 36.8898C37.2805 36.4991 37.5 35.9692 37.5 35.4167V27.0833C37.5 26.5308 37.2805 26.0009 36.8898 25.6102C36.4991 25.2195 35.9692 25 35.4167 25ZM25 14.5833C25 14.0308 24.7805 13.5009 24.3898 13.1102C23.9991 12.7195 23.4692 12.5 22.9167 12.5H14.5833C14.0308 12.5 13.5009 12.7195 13.1102 13.1102C12.7195 13.5009 12.5 14.0308 12.5 14.5833V22.9167C12.5 23.4692 12.7195 23.9991 13.1102 24.3898C13.5009 24.7805 14.0308 25 14.5833 25H22.9167C23.4692 25 23.9991 24.7805 24.3898 24.3898C24.7805 23.9991 25 23.4692 25 22.9167V14.5833Z" fill="#E6D9C1"/>
<path d="M6.25033 18.7503C5.69779 18.7503 5.16789 18.5308 4.77719 18.1401C4.38649 17.7494 4.16699 17.2195 4.16699 16.667V8.33366C4.16699 7.22859 4.60598 6.16878 5.38738 5.38738C6.16878 4.60598 7.22859 4.16699 8.33366 4.16699H16.667C17.2195 4.16699 17.7494 4.38649 18.1401 4.77719C18.5308 5.16789 18.7503 5.69779 18.7503 6.25033C18.7503 6.80286 18.5308 7.33276 18.1401 7.72346C17.7494 8.11417 17.2195 8.33366 16.667 8.33366H8.33366V16.667C8.33366 17.2195 8.11417 17.7494 7.72346 18.1401C7.33276 18.5308 6.80286 18.7503 6.25033 18.7503ZM45.8337 16.667V8.33366C45.8337 7.22859 45.3947 6.16878 44.6133 5.38738C43.8319 4.60598 42.7721 4.16699 41.667 4.16699H33.3337C32.7811 4.16699 32.2512 4.38649 31.8605 4.77719C31.4698 5.16789 31.2503 5.69779 31.2503 6.25033C31.2503 6.80286 31.4698 7.33276 31.8605 7.72346C32.2512 8.11417 32.7811 8.33366 33.3337 8.33366H41.667V16.667C41.667 17.2195 41.8865 17.7494 42.2772 18.1401C42.6679 18.5308 43.1978 18.7503 43.7503 18.7503C44.3029 18.7503 44.8328 18.5308 45.2235 18.1401C45.6142 17.7494 45.8337 17.2195 45.8337 16.667ZM18.7503 43.7503C18.7503 43.1978 18.5308 42.6679 18.1401 42.2772C17.7494 41.8865 17.2195 41.667 16.667 41.667H8.33366V33.3337C8.33366 32.7811 8.11417 32.2512 7.72346 31.8605C7.33276 31.4698 6.80286 31.2503 6.25033 31.2503C5.69779 31.2503 5.16789 31.4698 4.77719 31.8605C4.38649 32.2512 4.16699 32.7811 4.16699 33.3337V41.667C4.16699 42.7721 4.60598 43.8319 5.38738 44.6133C6.16878 45.3947 7.22859 45.8337 8.33366 45.8337H16.667C17.2195 45.8337 17.7494 45.6142 18.1401 45.2235C18.5308 44.8328 18.7503 44.3029 18.7503 43.7503ZM45.8337 41.667V33.3337C45.8337 32.7811 45.6142 32.2512 45.2235 31.8605C44.8328 31.4698 44.3029 31.2503 43.7503 31.2503C43.1978 31.2503 42.6679 31.4698 42.2772 31.8605C41.8865 32.2512 41.667 32.7811 41.667 33.3337V41.667H33.3337C32.7811 41.667 32.2512 41.8865 31.8605 42.2772C31.4698 42.6679 31.2503 43.1978 31.2503 43.7503C31.2503 44.3029 31.4698 44.8328 31.8605 45.2235C32.2512 45.6142 32.7811 45.8337 33.3337 45.8337H41.667C42.7721 45.8337 43.8319 45.3947 44.6133 44.6133C45.3947 43.8319 45.8337 42.7721 45.8337 41.667Z" fill="#78646D"/>
</svg>
