<svg width="50" height="50" viewBox="0 0 50 50" fill="none" xmlns="http://www.w3.org/2000/svg">
<g clip-path="url(#clip0_2356_25510)">
<path d="M38.8933 21.4854L43.398 31.623C44.3095 33.6745 43.3888 36.0781 41.3413 36.9914C39.2939 37.9048 36.8952 36.9822 35.9836 34.9307L32.3422 26.7356L30.7373 30.5238V21.4854H38.8933Z" fill="#E8BB73"/>
<path d="M39.3819 22.584L40.3139 24.6815C39.751 24.4856 39.1462 24.3791 38.5165 24.3791C35.9158 24.3791 33.739 26.1958 33.1845 28.6304L32.3425 26.7356L31.4502 28.8419V22.584H39.3819Z" fill="#393939" fill-opacity="0.2"/>
<path d="M25.825 21.3073V28.4862H18.3205L17.5425 26.7355L16.8008 28.4862H8.5V27.2681L13.7026 14.9872C14.3606 13.4339 15.8693 12.5033 17.4539 12.5088C19.0128 12.5034 20.5025 13.4034 21.1774 14.9221L24.9414 23.393L25.825 21.3073Z" fill="#E8BB73"/>
<path d="M24.936 23.3808L24.9414 23.393L28.5024 14.9872C29.1604 13.4339 30.669 12.5033 32.2537 12.5088C33.8126 12.5034 35.3024 13.4034 35.9772 14.9221L40.31 24.673C39.4362 23.9169 38.2977 23.4597 37.0528 23.4597C34.8896 23.4597 33.0482 24.8401 32.3576 26.7698L32.3424 26.7355L28.8443 34.9928C27.9686 37.0599 25.5863 38.0244 23.5233 37.1469C23.3214 37.0611 23.1301 36.9608 22.95 36.8477C22.1935 36.4356 21.5613 35.7798 21.184 34.9306L17.5566 26.7673C18.1027 26.9239 18.6795 27.0078 19.2757 27.0078C21.7848 27.0078 23.9475 25.5221 24.936 23.3808Z" fill="#E6D8C1"/>
<path d="M17.5203 26.7883L14.908 32.9545C14.271 33.2475 13.5611 33.4106 12.8128 33.4106C10.1876 33.4106 8.0361 31.4026 7.83984 28.8266L9.63252 24.5949C10.4958 23.8787 11.604 23.4482 12.8128 23.4482C14.9884 23.4482 16.8387 24.8431 17.5203 26.7883Z" fill="black"/>
<path d="M16.7533 28.5981L14.0445 34.9925C13.1688 37.0596 10.7865 38.024 8.72346 37.1466C6.66045 36.2692 5.69794 33.8821 6.57364 31.815L9.58159 24.7147C10.2183 24.4322 10.9225 24.2754 11.6632 24.2754C14.2203 24.2754 16.3431 26.1446 16.7533 28.5981Z" fill="#393939"/>
</g>
<defs>
<clipPath id="clip0_2356_25510">
<rect width="37.5" height="25" fill="white" transform="translate(6.25 12.5)"/>
</clipPath>
</defs>
</svg>
