<svg width="50" height="50" viewBox="0 0 50 50" fill="none" xmlns="http://www.w3.org/2000/svg">
<path fill-rule="evenodd" clip-rule="evenodd" d="M6.33312 4.7754C5.51902 4.48917 4.62704 4.91711 4.34083 5.73119C4.0546 6.5453 4.48254 7.43728 5.29662 7.72349L5.84081 7.91482C7.23166 8.40382 8.14573 8.72788 8.81833 9.0579C9.45004 9.36786 9.72852 9.61876 9.91198 9.88721C10.1 10.1624 10.2452 10.5404 10.3272 11.2973C10.4129 12.0894 10.415 13.1211 10.415 14.6627V20.0829H43.1738C43.8623 16.6296 44.1855 14.8754 43.2825 13.7018C42.3577 12.4995 39.1977 12.4995 35.6875 12.4995H13.5245C13.5106 11.9363 13.4841 11.424 13.434 10.961C13.3221 9.92692 13.0796 8.98376 12.4921 8.12409C11.9001 7.25771 11.1129 6.70284 10.1949 6.25242C9.33637 5.83117 8.24548 5.44767 6.96104 4.99615L6.33312 4.7754Z" fill="#78646D"/>
<path d="M42.0834 25.3903L43.1247 20.3387L43.1757 20.083H10.417C10.417 26.2114 10.5487 28.2337 12.3537 30.1376C14.1587 32.0414 17.0638 32.0414 22.8741 32.0414H33.9218C37.1739 32.0414 38.7999 32.0414 39.9493 31.1047C41.0989 30.168 41.427 28.5753 42.0834 25.3903Z" fill="#E6D9C1"/>
<path d="M15.625 37.5C17.3509 37.5 18.75 38.8992 18.75 40.625C18.75 42.3508 17.3509 43.75 15.625 43.75C13.8991 43.75 12.5 42.3508 12.5 40.625C12.5 38.8992 13.8991 37.5 15.625 37.5Z" fill="#78646D"/>
<path d="M34.375 37.5C36.1008 37.5 37.5 38.899 37.5 40.625C37.5 42.3508 36.1008 43.75 34.375 43.75C32.6492 43.75 31.25 42.3508 31.25 40.625C31.25 38.899 32.6492 37.5 34.375 37.5Z" fill="#78646D"/>
</svg>
