<svg width="50" height="50" viewBox="0 0 50 50" fill="none" xmlns="http://www.w3.org/2000/svg">
<circle cx="21.3858" cy="28.2618" r="20.835" fill="#78646D"/>
<path d="M25.0319 27.876L22.9486 27.1468V22.5218H23.1152C24.1777 22.5218 25.0319 23.4593 25.0319 24.6051C25.0319 25.4593 25.7402 26.1676 26.5944 26.1676C27.4486 26.1676 28.1569 25.4593 28.1569 24.6051C28.1569 21.7301 25.9069 19.3968 23.1152 19.3968H22.9486V18.876C22.9486 18.0218 22.2402 17.3135 21.3861 17.3135C20.5319 17.3135 19.8236 18.0218 19.8236 18.876V19.3968H19.1986C16.6778 19.3968 14.6152 21.5218 14.6152 24.1468C14.6152 27.1885 16.3861 28.1676 17.7402 28.6468L19.8236 29.376V34.001H19.6569C18.5944 34.001 17.7402 33.0635 17.7402 31.9176C17.7402 31.0635 17.0319 30.3551 16.1777 30.3551C15.3236 30.3551 14.6152 31.0635 14.6152 31.9176C14.6152 34.7926 16.8653 37.126 19.6569 37.126H19.8236V37.6468C19.8236 38.501 20.5319 39.2093 21.3861 39.2093C22.2402 39.2093 22.9486 38.501 22.9486 37.6468V37.126H23.5736C26.0944 37.126 28.1569 35.001 28.1569 32.376C28.1569 29.3135 26.3861 28.3343 25.0319 27.876ZM18.7611 25.6676C18.0527 25.4176 17.7402 25.2718 17.7402 24.126C17.7402 23.2301 18.4069 22.501 19.1986 22.501H19.8236V26.0218L18.7611 25.6676ZM23.5736 33.9801H22.9486V30.4593L24.0111 30.8343C24.7194 31.0843 25.0319 31.2301 25.0319 32.376C25.0319 33.251 24.3652 33.9801 23.5736 33.9801Z" fill="#E6D9C1"/>
<path d="M33.4111 7.85146C33.4112 8.38179 33.6219 8.89037 33.9969 9.26537C34.3719 9.64037 34.8805 9.85108 35.4108 9.85116L37.6537 9.85116L32.5329 14.972C32.1578 15.3471 31.9471 15.8558 31.9471 16.3862C31.9471 16.9167 32.1578 17.4254 32.5329 17.8005C32.9079 18.1755 33.4167 18.3862 33.9471 18.3862C34.4775 18.3862 34.9862 18.1755 35.3613 17.8005L40.4822 12.6796L40.4822 14.9225C40.4776 15.1881 40.5259 15.4518 40.6243 15.6985C40.7227 15.9452 40.8693 16.1697 41.0554 16.3592C41.2416 16.5486 41.4636 16.699 41.7085 16.8017C41.9534 16.9044 42.2163 16.9573 42.4819 16.9573C42.7474 16.9573 43.0103 16.9044 43.2553 16.8017C43.5002 16.699 43.7222 16.5486 43.9083 16.3592C44.0945 16.1697 44.241 15.9452 44.3394 15.6985C44.4379 15.4518 44.4862 15.1881 44.4816 14.9225L44.4816 5.85176L35.4108 5.85176C34.8805 5.85184 34.3719 6.06255 33.9969 6.43755C33.6219 6.81255 33.4112 7.32113 33.4111 7.85146Z" fill="#E6D9C1"/>
</svg>
